<svg width="52" height="36" viewBox="0 0 52 36" fill="none" xmlns="http://www.w3.org/2000/svg">
<path d="M5.576 35.016C4.584 35.016 3.64 34.728 2.744 34.152C1.848 33.576 1.176 32.712 0.727999 31.56C0.567999 31.144 0.471999 30.696 0.439999 30.216C0.375999 29.768 0.343999 29.32 0.343999 28.872C0.343999 28.424 0.423999 28.2 0.584 28.2C0.743999 28.2 0.823999 28.328 0.823999 28.584C0.823999 30.088 1.208 31.224 1.976 31.992C2.712 32.76 3.656 33.144 4.808 33.144C5.928 33.144 7.016 32.824 8.072 32.184C9.096 31.544 10.056 30.728 10.952 29.736C12.456 28.104 13.816 26.248 15.032 24.168C16.28 22.056 17.4 19.88 18.392 17.64C18.648 17.096 19.016 16.232 19.496 15.048C19.976 13.832 20.504 12.52 21.08 11.112C21.656 9.672 22.216 8.376 22.76 7.224C23.24 6.136 23.64 5.272 23.96 4.632C24.312 3.992 24.776 3.448 25.352 3C25.928 2.552 26.792 2.104 27.944 1.656C27.432 1.688 26.952 1.736 26.504 1.8C26.056 1.832 25.704 1.848 25.448 1.848C24.232 1.88 23.016 1.96 21.8 2.088C20.584 2.216 19.496 2.456 18.536 2.808C17.576 3.128 16.888 3.592 16.472 4.2C16.184 4.616 16.04 5.096 16.04 5.64C16.04 6.184 16.184 6.712 16.472 7.224C16.76 7.736 17.128 8.104 17.576 8.328C17.64 8.392 17.672 8.44 17.672 8.472C17.672 8.536 17.592 8.616 17.432 8.712C17.304 8.776 17.16 8.792 17 8.76C16.744 8.6 16.424 8.344 16.04 7.992C15.656 7.608 15.304 7.208 14.984 6.792C14.696 6.376 14.504 6.024 14.408 5.736C14.28 5.352 14.216 4.968 14.216 4.584C14.216 3.816 14.488 3.192 15.032 2.712C15.608 2.232 16.344 1.864 17.24 1.608C18.136 1.352 19.096 1.176 20.12 1.08C21.176 0.951999 22.184 0.887999 23.144 0.887999C24.136 0.855999 24.984 0.839999 25.688 0.839999H30.872C30.936 0.839999 30.968 0.855999 30.968 0.887999C30.968 0.983999 30.856 1.128 30.632 1.32C30.44 1.48 30.312 1.56 30.248 1.56C29.352 1.592 28.552 1.928 27.848 2.568C27.176 3.208 26.584 3.944 26.072 4.776C25.592 5.576 25.192 6.312 24.872 6.984C24.68 7.368 24.376 7.992 23.96 8.856C23.576 9.688 23.144 10.648 22.664 11.736C22.216 12.792 21.752 13.848 21.272 14.904C20.824 15.96 20.424 16.872 20.072 17.64C19.24 19.56 18.456 21.352 17.72 23.016C17.016 24.648 16.232 26.184 15.368 27.624C14.504 29.064 13.432 30.472 12.152 31.848C11.352 32.712 10.344 33.448 9.128 34.056C7.88 34.696 6.696 35.016 5.576 35.016ZM43.406 28.104C42.606 28.104 41.79 27.848 40.958 27.336C40.158 26.856 39.342 26.072 38.51 24.984C37.486 23.576 36.622 22.232 35.918 20.952C35.214 19.672 34.638 18.552 34.19 17.592C33.774 16.632 33.454 15.944 33.23 15.528C33.23 15.528 33.31 15.432 33.47 15.24C33.63 15.016 33.822 14.808 34.046 14.616C34.302 14.392 34.51 14.28 34.67 14.28C36.174 14.28 37.518 14.264 38.702 14.232C39.918 14.168 40.99 13.976 41.918 13.656C42.878 13.304 43.726 12.712 44.462 11.88C45.198 11.048 45.822 9.864 46.334 8.328C46.494 7.944 46.59 7.56 46.622 7.176C46.686 6.76 46.718 6.36 46.718 5.976C46.718 4.888 46.446 3.928 45.902 3.096C45.358 2.264 44.574 1.784 43.55 1.656C43.422 1.624 43.278 1.608 43.118 1.608C42.958 1.608 42.798 1.608 42.638 1.608C42.03 1.608 41.358 1.688 40.622 1.848C39.918 2.008 39.39 2.312 39.038 2.76C38.238 3.816 37.47 5.016 36.734 6.36C35.998 7.672 35.294 9.016 34.622 10.392C33.95 11.736 33.31 13 32.702 14.184C32.542 14.504 32.238 15.08 31.79 15.912C31.342 16.712 30.846 17.64 30.302 18.696C29.758 19.72 29.246 20.744 28.766 21.768C28.286 22.792 27.902 23.704 27.614 24.504C27.358 25.304 27.294 25.848 27.422 26.136C27.454 26.168 27.47 26.216 27.47 26.28C27.47 26.376 27.422 26.424 27.326 26.424C27.07 26.424 26.814 26.36 26.558 26.232C26.302 26.104 25.998 26.04 25.646 26.04C25.326 26.04 25.006 26.12 24.686 26.28C24.366 26.408 23.95 26.648 23.438 27C22.926 27.352 22.35 27.64 21.71 27.864C21.646 27.896 21.55 27.912 21.422 27.912C21.198 27.912 21.022 27.848 20.894 27.72C20.766 27.624 20.766 27.544 20.894 27.48C21.598 27.352 22.206 27.096 22.718 26.712C23.23 26.296 23.646 25.784 23.966 25.176C24.638 24.056 25.294 22.936 25.934 21.816C26.606 20.664 27.246 19.512 27.854 18.36C28.59 16.952 29.342 15.544 30.11 14.136C30.878 12.696 31.646 11.272 32.414 9.864C33.15 8.552 33.806 7.288 34.382 6.072C34.958 4.856 35.39 3.976 35.678 3.432C35.902 3.016 36.286 2.648 36.83 2.328C37.406 1.976 37.966 1.704 38.51 1.512C38.318 1.512 38.126 1.512 37.934 1.512C37.742 1.48 37.534 1.464 37.31 1.464C36.318 1.464 35.23 1.528 34.046 1.656C32.894 1.752 31.758 1.912 30.638 2.136C29.55 2.36 28.59 2.664 27.758 3.048C26.926 3.432 26.366 3.896 26.078 4.44C25.95 4.728 25.838 5.016 25.742 5.304C25.646 5.592 25.598 5.88 25.598 6.168C25.598 6.904 25.854 7.432 26.366 7.752C26.398 7.752 26.414 7.784 26.414 7.848C26.414 7.912 26.35 7.976 26.222 8.04C26.126 8.104 26.046 8.12 25.982 8.088C25.662 7.928 25.294 7.544 24.878 6.936C24.494 6.296 24.238 5.768 24.11 5.352C24.014 4.968 23.966 4.616 23.966 4.296C23.966 3.464 24.238 2.824 24.782 2.376C25.326 1.896 26.014 1.56 26.846 1.368C27.678 1.144 28.526 1.016 29.39 0.983997C30.286 0.919998 31.07 0.887999 31.742 0.887999C32.766 0.887999 33.982 0.887999 35.39 0.887999C36.798 0.855999 38.094 0.839999 39.278 0.839999C39.566 0.839999 39.886 0.839999 40.238 0.839999C40.59 0.808 40.958 0.792 41.342 0.792C42.206 0.792 43.102 0.839999 44.03 0.935998C44.958 1.032 45.806 1.24 46.574 1.56C47.342 1.88 47.934 2.376 48.35 3.048C48.894 3.944 49.166 4.968 49.166 6.12C49.166 7.88 48.702 9.352 47.774 10.536C47.454 10.952 47.102 11.352 46.718 11.736C46.334 12.12 45.886 12.488 45.374 12.84C44.542 13.416 43.55 13.912 42.398 14.328C41.246 14.712 40.046 15 38.798 15.192C37.582 15.384 36.462 15.512 35.438 15.576C35.854 16.472 36.478 17.672 37.31 19.176C38.174 20.68 39.214 22.184 40.43 23.688C41.07 24.488 41.726 25.048 42.398 25.368C43.07 25.688 43.726 25.848 44.366 25.848C45.39 25.848 46.35 25.544 47.246 24.936C48.174 24.328 49.006 23.624 49.742 22.824C50.51 21.992 51.118 21.272 51.566 20.664C51.662 20.504 51.742 20.424 51.806 20.424C51.902 20.424 51.95 20.52 51.95 20.712C51.95 20.968 51.854 21.224 51.662 21.48C50.19 23.496 48.782 25.112 47.438 26.328C46.094 27.512 44.75 28.104 43.406 28.104Z" fill="white"/>
</svg>
